<?xml version="1.0" encoding="UTF-8"?>
<svg id="Layer_1" xmlns="http://www.w3.org/2000/svg" width="1366" height="768" viewBox="0 0 1366 768">
  <defs>
    <style>
      .cls-1 {
        letter-spacing: .28em;
      }

      .cls-2 {
        letter-spacing: .28em;
      }

      .cls-3 {
        fill: #0528f2;
      }

      .cls-4 {
        font-family: Aller-Bold, Aller;
        font-size: 218.07px;
        font-weight: 700;
      }

      .cls-5 {
        letter-spacing: .26em;
      }

      .cls-6 {
        letter-spacing: .28em;
      }

      .cls-7 {
        letter-spacing: .2em;
      }

      .cls-8 {
        letter-spacing: -.02em;
      }

      .cls-9 {
        font-family: Calibri-Light, Calibri;
        font-size: 62.74px;
        font-weight: 300;
      }

      .cls-10 {
        letter-spacing: .28em;
      }
    </style>
  </defs>
  <text class="cls-4" transform="translate(50.32 608.38)"><tspan x="0" y="0">Denis Dan</tspan><tspan class="cls-8" x="1012.93" y="0">o</tspan><tspan x="1135.05" y="0">v</tspan></text>
  <text class="cls-9" transform="translate(222.22 703.96)"><tspan class="cls-1" x="0" y="0">FULL-</tspan><tspan class="cls-10" x="228.34" y="0">S</tspan><tspan class="cls-7" x="274" y="0">T</tspan><tspan class="cls-6" x="316.99" y="0">A</tspan><tspan class="cls-1" x="369.6" y="0">CK DEVE</tspan><tspan class="cls-5" x="706.14" y="0">L</tspan><tspan class="cls-2" x="748.46" y="0">OPER</tspan></text>
  <path class="cls-3" d="M789.39,283.48c3.02-.5,6.1-.94,9.25-1.32,3.14-.38,6.1-.57,8.87-.57,5.78,0,12.2.63,19.25,1.89l-23.78,84.17c-3.02.5-6.1.81-9.25.94-3.15.13-6.1.19-8.87.19-3.02,0-6.04-.06-9.06-.19-3.02-.13-5.91-.44-8.68-.94l22.27-84.17ZM787.5,172.89c-.51-3.52-.94-6.98-1.32-10.38-.38-3.4-.57-6.85-.57-10.38s.19-7.11.57-10.76c.38-3.64.81-7.23,1.32-10.76,3.52-.5,6.98-.88,10.38-1.13,3.4-.25,6.85-.38,10.38-.38s7.04.13,10.57.38c3.52.25,7.04.63,10.57,1.13.5,3.53.94,7.05,1.32,10.57.38,3.53.57,7.04.57,10.57s-.19,7.05-.57,10.57c-.38,3.53-.82,7.05-1.32,10.57-3.53.51-6.98.88-10.38,1.13-3.4.25-6.86.38-10.38.38s-7.05-.12-10.57-.38c-3.53-.25-7.05-.63-10.57-1.13Z"/>
  <path class="cls-3" d="M439.1,326.12c0-14.59-.25-26.92-.75-36.99-.51-10.06-2.02-18.69-4.53-25.86-2.52-7.17-6.36-13.27-11.51-18.31-5.16-5.03-12.4-9.94-21.7-14.72v-4.91c6.79-3.52,12.64-7.23,17.55-11.13,4.91-3.9,8.87-8.36,11.89-13.4,3.02-5.03,5.22-10.76,6.6-17.17,1.38-6.42,2.08-13.9,2.08-22.46,0-17.86.57-33.59,1.7-47.18,1.13-13.59,4.15-24.97,9.06-34.16,4.91-9.18,12.27-16.1,22.08-20.76,9.81-4.65,23.27-6.98,40.39-6.98h5.28c.5,2.52.88,4.97,1.13,7.36.25,2.39.38,4.97.38,7.74s-.13,5.35-.38,7.74c-.25,2.39-.63,4.72-1.13,6.98-9.57,0-17.11,1.01-22.65,3.02-5.54,2.02-9.76,5.35-12.64,10-2.9,4.66-4.78,10.64-5.66,17.93-.88,7.3-1.32,16.23-1.32,26.8v2.27c0,13.84-.51,25.54-1.51,35.1-1.01,9.57-2.77,17.55-5.28,23.97-2.52,6.42-5.85,11.7-10,15.85-4.15,4.15-9.25,7.74-15.29,10.76,6.04,3.27,11.13,6.98,15.29,11.13,4.15,4.15,7.48,9.44,10,15.85,2.51,6.42,4.27,14.41,5.28,23.97,1,9.57,1.51,21.27,1.51,35.1v2.64c0,10.32.44,19.13,1.32,26.42.88,7.29,2.77,13.21,5.66,17.74,2.89,4.53,7.11,7.86,12.64,10,5.53,2.13,13.08,3.21,22.65,3.21.5,2.27.88,4.59,1.13,6.98.25,2.39.38,4.97.38,7.74,0,2.51-.13,5.03-.38,7.55-.25,2.51-.63,5.03-1.13,7.55-15.1,0-27.62-1.51-37.56-4.53-9.94-3.02-17.93-7.68-23.97-13.96-6.04-6.29-10.32-14.34-12.83-24.16-2.52-9.81-3.78-21.38-3.78-34.72Z"/>
  <path class="cls-3" d="M548.05,79.32c8.55-1,18.87-1.95,30.95-2.83,12.08-.88,23.9-1.32,35.48-1.32,47.56,0,83.1,12.08,106.63,36.23,23.53,24.16,35.29,58.88,35.29,104.17s-12.02,82.41-36.05,105.31c-24.03,22.9-59.83,34.34-107.38,34.34-11.83,0-23.53-.44-35.1-1.32-11.58-.89-21.51-1.95-29.82-3.21V79.32ZM586.55,319c3.52.51,7.86.94,13.02,1.32,5.15.38,10.63.57,16.42.57,14.85,0,28.37-1.7,40.58-5.1,12.2-3.4,22.71-9.12,31.52-17.17,8.81-8.05,15.6-18.93,20.38-32.65,4.78-13.71,7.17-30.89,7.17-51.52,0-18.87-2.39-34.97-7.17-48.32-4.78-13.33-11.51-24.22-20.19-32.65-8.68-8.43-19.06-14.53-31.14-18.31-12.08-3.77-25.42-5.66-40.01-5.66-4.78,0-10,.07-15.66.19-5.66.13-10.63.57-14.91,1.32v207.97Z"/>
  <path class="cls-3" d="M923.78,326.12c0,13.34-1.26,24.91-3.77,34.72-2.52,9.81-6.79,17.86-12.83,24.16-6.04,6.29-14.03,10.94-23.97,13.96-9.94,3.02-22.46,4.53-37.56,4.53-.51-2.52-.88-5.04-1.13-7.55-.25-2.52-.38-5.03-.38-7.55,0-2.77.12-5.35.38-7.74.25-2.39.63-4.72,1.13-6.98,9.31,0,16.8-1.07,22.46-3.21,5.66-2.14,9.94-5.47,12.83-10,2.89-4.53,4.78-10.44,5.66-17.74.88-7.3,1.32-16.1,1.32-26.42v-2.64c0-13.83.5-25.54,1.51-35.1,1-9.56,2.76-17.55,5.28-23.97,2.51-6.42,5.85-11.7,10-15.85,4.15-4.15,9.25-7.86,15.29-11.13-6.04-3.02-11.13-6.61-15.29-10.76-4.15-4.15-7.49-9.44-10-15.85-2.52-6.42-4.28-14.4-5.28-23.97-1.01-9.56-1.51-21.26-1.51-35.1v-2.27c0-10.57-.44-19.5-1.32-26.8-.88-7.3-2.77-13.27-5.66-17.93-2.9-4.65-7.17-7.98-12.83-10-5.66-2.01-13.15-3.02-22.46-3.02-.51-2.27-.88-4.59-1.13-6.98-.25-2.39-.38-4.97-.38-7.74s.12-5.34.38-7.74c.25-2.39.63-4.84,1.13-7.36h5.28c17.11,0,30.57,2.33,40.39,6.98,9.81,4.66,17.17,11.58,22.08,20.76,4.91,9.19,7.93,20.57,9.06,34.16,1.13,13.59,1.7,29.32,1.7,47.18,0,8.56.69,16.04,2.08,22.46,1.38,6.42,3.59,12.14,6.61,17.17,3.02,5.03,6.98,9.5,11.89,13.4,4.91,3.91,10.76,7.62,17.55,11.13v4.91c-9.31,4.78-16.55,9.69-21.7,14.72-5.16,5.03-9,11.13-11.51,18.31-2.52,7.17-4.03,15.79-4.53,25.86-.51,10.06-.75,22.4-.75,36.99Z"/>
</svg>