<?xml version="1.0" encoding="UTF-8"?>
<svg id="Layer_1" xmlns="http://www.w3.org/2000/svg" width="1366" height="768" viewBox="0 0 1366 768">
  <defs>
    <style>
      .cls-1 {
        fill: #0528f2;
      }
    </style>
  </defs>
  <g>
    <path class="cls-1" d="M86.64,354.44c0-12.3-.21-22.71-.64-31.2-.43-8.49-1.7-15.76-3.82-21.81-2.12-6.05-5.36-11.19-9.71-15.44-4.35-4.24-10.46-8.38-18.31-12.42v-4.14c5.73-2.97,10.66-6.1,14.8-9.39,4.14-3.29,7.48-7.05,10.03-11.3,2.55-4.24,4.4-9.07,5.57-14.49,1.16-5.41,1.75-11.73,1.75-18.94,0-15.07.48-28.33,1.43-39.79.96-11.46,3.5-21.06,7.64-28.81,4.14-7.75,10.35-13.58,18.62-17.51,8.28-3.92,19.63-5.89,34.06-5.89h4.46c.42,2.13.74,4.19.96,6.21.21,2.02.32,4.19.32,6.53s-.11,4.51-.32,6.53c-.21,2.02-.53,3.98-.96,5.89-8.07,0-14.43.85-19.1,2.55-4.67,1.7-8.23,4.51-10.66,8.43-2.44,3.93-4.04,8.97-4.78,15.12-.75,6.16-1.11,13.69-1.11,22.6v1.91c0,11.67-.43,21.54-1.27,29.61-.85,8.07-2.34,14.8-4.46,20.21-2.12,5.41-4.93,9.87-8.44,13.37-3.5,3.5-7.8,6.53-12.89,9.07,5.09,2.76,9.39,5.89,12.89,9.39,3.5,3.5,6.31,7.96,8.44,13.37,2.12,5.41,3.61,12.15,4.46,20.21.85,8.07,1.27,17.94,1.27,29.61v2.23c0,8.71.37,16.13,1.11,22.29.74,6.15,2.33,11.14,4.78,14.96,2.44,3.82,5.99,6.63,10.66,8.44,4.67,1.8,11.03,2.7,19.1,2.7.42,1.91.74,3.87.96,5.89.21,2.01.32,4.19.32,6.53,0,2.12-.11,4.24-.32,6.37-.21,2.12-.53,4.25-.96,6.37-12.73,0-23.29-1.27-31.68-3.82-8.39-2.55-15.12-6.47-20.21-11.78-5.09-5.31-8.71-12.1-10.82-20.38-2.12-8.28-3.18-18.03-3.18-29.29Z"/>
    <path class="cls-1" d="M153.74,421.17h-1.2c-12.82,0-23.62-1.31-32.1-3.88-8.58-2.61-15.6-6.7-20.85-12.16-5.25-5.47-9.02-12.55-11.19-21.03-2.14-8.35-3.23-18.33-3.23-29.65,0-12.2-.21-22.67-.63-31.12-.42-8.31-1.68-15.51-3.74-21.4-2.04-5.8-5.18-10.8-9.35-14.87-4.23-4.12-10.27-8.21-17.95-12.16l-.8-.41v-5.93l.79-.41c5.63-2.91,10.53-6.02,14.56-9.24,3.98-3.16,7.24-6.83,9.68-10.9,2.45-4.08,4.26-8.8,5.39-14.04,1.14-5.3,1.72-11.57,1.72-18.63,0-15.03.48-28.46,1.44-39.91.97-11.61,3.59-21.49,7.81-29.38,4.27-7.99,10.76-14.09,19.29-18.14,8.44-4.01,20.11-6.03,34.69-6.03h5.66l.23,1.18c.43,2.15.76,4.29.98,6.34.22,2.09.33,4.34.33,6.68s-.11,4.6-.33,6.68c-.22,2.07-.55,4.1-.98,6.06l-.25,1.15h-1.18c-7.85,0-14.11.83-18.6,2.46-4.34,1.58-7.67,4.21-9.92,7.83-2.32,3.73-3.85,8.62-4.57,14.53-.73,6.04-1.1,13.59-1.1,22.43v1.91c0,11.65-.43,21.66-1.28,29.76-.86,8.15-2.39,15.08-4.55,20.6-2.19,5.58-5.14,10.25-8.77,13.87-3.04,3.03-6.69,5.74-10.88,8.08,4.2,2.49,7.85,5.28,10.88,8.31,3.63,3.62,6.57,8.29,8.76,13.87,2.16,5.51,3.69,12.44,4.55,20.6.85,8.1,1.28,18.12,1.28,29.76v2.23c0,8.63.37,16.07,1.1,22.11.71,5.91,2.24,10.73,4.56,14.35,2.25,3.53,5.6,6.18,9.96,7.86,4.48,1.73,10.73,2.61,18.57,2.61h1.18l.25,1.15c.43,1.96.76,3.99.98,6.05.22,2.09.33,4.33.33,6.68,0,2.13-.11,4.32-.33,6.51-.22,2.17-.55,4.36-.98,6.51l-.23,1.18ZM55.63,272.69c7.57,3.95,13.57,8.08,17.86,12.26,4.49,4.39,7.88,9.77,10.07,16,2.16,6.15,3.47,13.63,3.9,22.22.42,8.5.64,19.02.64,31.27,0,11.08,1.06,20.81,3.14,28.92,2.04,7.98,5.56,14.62,10.46,19.73,4.9,5.1,11.49,8.93,19.58,11.39,7.94,2.41,18.04,3.68,30.03,3.76.3-1.68.54-3.37.71-5.05.21-2.09.31-4.18.31-6.22,0-2.25-.1-4.39-.31-6.37-.16-1.55-.4-3.09-.69-4.58-7.65-.09-13.85-1.03-18.43-2.8-4.95-1.91-8.78-4.95-11.37-9.02-2.55-3.99-4.23-9.23-5-15.57-.75-6.15-1.12-13.71-1.12-22.46v-2.23c0-11.54-.43-21.45-1.26-29.45-.83-7.89-2.3-14.56-4.36-19.83-2.04-5.2-4.77-9.53-8.11-12.87-3.38-3.38-7.61-6.45-12.56-9.14l-2.48-1.34,2.52-1.26c4.93-2.46,9.14-5.42,12.51-8.8,3.34-3.34,6.07-7.67,8.11-12.87,2.06-5.27,3.53-11.94,4.36-19.83.84-8,1.26-17.9,1.26-29.45v-1.91c0-8.96.38-16.62,1.12-22.78.76-6.33,2.44-11.62,4.99-15.72,2.6-4.19,6.44-7.23,11.41-9.04,4.58-1.66,10.76-2.55,18.41-2.63.29-1.49.52-3.03.69-4.58.2-1.98.31-4.12.31-6.37s-.1-4.39-.31-6.37c-.17-1.59-.41-3.23-.71-4.89h-3.24c-14.14,0-25.39,1.93-33.44,5.75-7.95,3.78-13.99,9.45-17.96,16.87-4.02,7.54-6.54,17.04-7.47,28.24-.95,11.38-1.43,24.72-1.43,39.67,0,7.27-.6,13.75-1.78,19.25-1.2,5.55-3.13,10.57-5.75,14.93-2.63,4.38-6.12,8.31-10.37,11.69-3.99,3.18-8.78,6.25-14.25,9.13v2.36Z"/>
  </g>
  <path class="cls-1" d="M198.38,137.96c7.21-.85,15.92-1.64,26.11-2.39,10.19-.74,20.16-1.11,29.92-1.11,40.11,0,70.09,10.18,89.93,30.56,19.84,20.38,29.77,49.66,29.77,87.86s-10.14,69.51-30.4,88.82c-20.27,19.31-50.46,28.97-90.57,28.97-9.98,0-19.85-.37-29.61-1.11-9.76-.75-18.15-1.65-25.15-2.71v-228.89ZM230.85,340.11c2.97.43,6.63.8,10.98,1.11,4.35.32,8.96.48,13.85.48,12.52,0,23.93-1.44,34.22-4.3,10.29-2.86,19.15-7.69,26.58-14.49,7.43-6.79,13.16-15.97,17.19-27.53,4.03-11.57,6.05-26.05,6.05-43.46,0-15.92-2.02-29.5-6.05-40.75-4.03-11.24-9.71-20.42-17.03-27.53-7.32-7.11-16.08-12.26-26.26-15.44-10.19-3.18-21.44-4.78-33.75-4.78-4.03,0-8.44.06-13.21.16-4.77.11-8.97.48-12.57,1.11v175.41Z"/>
  <path class="cls-1" d="M441.59,293c.42,17.83,5.04,30.88,13.85,39.16,8.81,8.28,21.81,12.42,39,12.42,15.07,0,29.39-2.65,42.98-7.96,1.7,3.18,3.07,7.06,4.14,11.62,1.06,4.57,1.7,9.07,1.91,13.53-7,2.97-14.7,5.2-23.08,6.69-8.39,1.48-17.67,2.23-27.86,2.23-14.86,0-27.59-2.07-38.2-6.21-10.61-4.14-19.37-9.98-26.26-17.51-6.9-7.53-11.94-16.44-15.12-26.74-3.18-10.29-4.77-21.59-4.77-33.9s1.54-23.4,4.62-33.91c3.07-10.51,7.8-19.63,14.17-27.38,6.37-7.74,14.37-13.9,24.04-18.46,9.65-4.56,21.06-6.84,34.22-6.84,11.25,0,21.11,1.91,29.61,5.73,8.49,3.82,15.6,9.07,21.33,15.76,5.73,6.68,10.08,14.64,13.05,23.88,2.97,9.23,4.46,19.26,4.46,30.08,0,2.97-.11,6.1-.32,9.39-.21,3.29-.43,6.1-.64,8.43h-111.1ZM522.45,269.44c0-5.94-.8-11.62-2.39-17.03s-3.93-10.13-7-14.16c-3.08-4.03-7-7.27-11.78-9.71-4.78-2.44-10.46-3.66-17.03-3.66-12.95,0-22.87,3.93-29.77,11.78-6.9,7.86-11.09,18.78-12.58,32.79h80.54Z"/>
  <path class="cls-1" d="M595.04,203.54c2.33-.42,4.62-.74,6.84-.96,2.23-.21,4.51-.32,6.84-.32s4.51.11,6.53.32c2.02.21,4.19.53,6.53.96.64,3.18,1.27,7.48,1.91,12.89.64,5.41.95,9.92.95,13.53,2.12-3.6,4.83-7.21,8.12-10.82,3.29-3.6,7.05-6.84,11.3-9.71,4.24-2.86,9.12-5.2,14.64-7,5.52-1.8,11.57-2.71,18.15-2.71,18.67,0,32.47,5.36,41.39,16.08,8.91,10.72,13.37,26.58,13.37,47.59v103.46c-2.34.42-4.99.74-7.96.95-2.98.21-5.63.32-7.96.32s-4.93-.11-7.8-.32c-2.86-.21-5.47-.53-7.8-.95v-94.87c0-15.07-2.34-26.15-7-33.27-4.67-7.11-12.1-10.66-22.28-10.66-5.94,0-11.57,1.06-16.87,3.18-5.31,2.12-9.98,5.41-14.01,9.87-4.03,4.45-7.27,10.24-9.71,17.35-2.44,7.11-3.66,15.65-3.66,25.63v82.77c-2.34.42-4.93.74-7.8.95-2.86.21-5.47.32-7.8.32s-4.99-.11-7.96-.32c-2.97-.21-5.63-.53-7.96-.95v-163.31Z"/>
  <path class="cls-1" d="M788.59,228.37h-20.69c-.43-1.7-.74-3.66-.95-5.89-.21-2.23-.32-4.4-.32-6.53s.1-4.3.32-6.53c.21-2.23.53-4.19.95-5.89h51.57v163.31c-2.34.42-4.94.74-7.8.95-2.86.21-5.47.32-7.8.32-2.13,0-4.62-.11-7.48-.32-2.86-.21-5.47-.53-7.8-.95v-138.48ZM781.58,167.57c-.43-2.55-.69-5.3-.8-8.28-.11-2.97-.16-5.62-.16-7.96s.05-4.98.16-7.96c.11-2.97.37-5.62.8-7.96,2.76-.42,5.73-.74,8.92-.95,3.18-.21,5.94-.32,8.28-.32s5.09.11,8.28.32c3.18.21,6.05.53,8.59.95.42,2.34.69,4.99.8,7.96.1,2.97.16,5.63.16,7.96s-.05,4.99-.16,7.96c-.11,2.97-.37,5.73-.8,8.28-2.55.43-5.36.74-8.44.95-3.08.21-5.78.32-8.12.32-2.55,0-5.41-.11-8.59-.32-3.19-.21-6.16-.53-8.92-.95Z"/>
  <path class="cls-1" d="M867.86,337.25c5.73,2.34,12.04,4.19,18.94,5.57,6.89,1.38,13.74,2.07,20.53,2.07,4.88,0,9.55-.53,14.01-1.59,4.46-1.06,8.33-2.65,11.62-4.78,3.29-2.12,5.94-4.72,7.96-7.8,2.01-3.07,3.03-6.53,3.03-10.35,0-4.25-.8-7.75-2.39-10.51-1.59-2.76-3.71-5.09-6.37-7-2.66-1.91-5.73-3.55-9.23-4.93-3.5-1.38-7.27-2.71-11.3-3.98l-11.14-4.14c-13.59-5.09-23.46-10.82-29.61-17.19-6.16-6.37-9.23-14.96-9.23-25.79,0-14.43,5.14-25.89,15.44-34.38,10.29-8.49,25.41-12.73,45.37-12.73,8.28,0,16.4.8,24.35,2.39,7.96,1.59,14.91,3.45,20.85,5.57-.43,4.25-1.22,8.49-2.39,12.73-1.17,4.25-2.6,8.17-4.3,11.78-4.67-1.7-10.24-3.34-16.71-4.93-6.48-1.59-13.43-2.39-20.85-2.39-7.85,0-14.8,1.38-20.85,4.14-6.05,2.76-9.07,7.64-9.07,14.65,0,3.61.74,6.68,2.23,9.23,1.48,2.55,3.5,4.73,6.05,6.53,2.55,1.8,5.46,3.34,8.76,4.62,3.29,1.27,6.84,2.55,10.66,3.82l14.01,4.78c5.09,1.7,9.92,3.72,14.49,6.05,4.56,2.34,8.49,5.25,11.78,8.76,3.29,3.5,5.94,7.75,7.96,12.73,2.01,4.99,3.03,10.98,3.03,17.99,0,7.85-1.59,15.02-4.78,21.49-3.18,6.48-7.7,11.99-13.53,16.55-5.84,4.57-12.89,8.12-21.17,10.67-8.28,2.55-17.4,3.82-27.38,3.82s-19.1-.69-26.74-2.07c-7.64-1.38-14.75-3.23-21.33-5.57.42-4.24,1.32-8.54,2.71-12.9,1.38-4.35,2.91-8.64,4.62-12.89Z"/>
  <path class="cls-1" d="M303.52,398.72c7.21-.85,15.92-1.64,26.11-2.39,10.19-.74,20.16-1.11,29.92-1.11,40.11,0,70.09,10.18,89.93,30.56,19.84,20.38,29.77,49.66,29.77,87.86s-10.14,69.51-30.4,88.82c-20.27,19.31-50.46,28.97-90.57,28.97-9.98,0-19.85-.37-29.61-1.11-9.76-.75-18.15-1.65-25.15-2.71v-228.89ZM335.99,600.87c2.97.43,6.63.8,10.98,1.11,4.35.32,8.96.48,13.85.48,12.52,0,23.93-1.44,34.22-4.3,10.29-2.86,19.15-7.69,26.58-14.49,7.43-6.79,13.16-15.97,17.19-27.53,4.03-11.57,6.05-26.05,6.05-43.46,0-15.92-2.02-29.5-6.05-40.75-4.03-11.24-9.71-20.42-17.03-27.53-7.32-7.11-16.08-12.26-26.26-15.44-10.19-3.18-21.44-4.78-33.75-4.78-4.03,0-8.44.06-13.21.16-4.77.11-8.97.48-12.57,1.11v175.41Z"/>
  <path class="cls-1" d="M609.45,520.01c0-12.52-3.18-21.22-9.55-26.11-6.37-4.88-15.6-7.32-27.7-7.32-7.43,0-14.38.59-20.85,1.75-6.48,1.17-12.79,2.71-18.94,4.62-4.03-7-6.05-15.38-6.05-25.15,7.21-2.33,15.17-4.14,23.88-5.41,8.7-1.27,17.08-1.91,25.15-1.91,21.22,0,37.35,4.83,48.39,14.49,11.03,9.66,16.55,25.1,16.55,46.32v102.19c-7.43,1.7-16.45,3.45-27.06,5.25-10.61,1.8-21.44,2.7-32.47,2.7-10.4,0-19.79-.95-28.18-2.86-8.39-1.91-15.49-4.98-21.33-9.23-5.84-4.24-10.35-9.65-13.53-16.24-3.18-6.58-4.78-14.54-4.78-23.88s1.86-17.14,5.57-24.04c3.71-6.89,8.75-12.62,15.12-17.19,6.37-4.56,13.69-7.96,21.97-10.19,8.28-2.23,16.98-3.34,26.1-3.34,6.79,0,12.36.16,16.71.48,4.35.32,8.01.69,10.98,1.11v-6.05ZM609.45,550.89c-3.18-.42-7.22-.85-12.1-1.27-4.88-.42-9.02-.64-12.42-.64-13.16,0-23.19,2.44-30.08,7.32-6.9,4.88-10.35,12.31-10.35,22.29,0,6.37,1.16,11.35,3.5,14.96,2.33,3.61,5.25,6.37,8.75,8.28,3.5,1.91,7.37,3.08,11.62,3.5,4.24.43,8.28.64,12.1.64,4.88,0,9.92-.26,15.12-.8,5.2-.53,9.81-1.32,13.85-2.39v-51.89Z"/>
  <path class="cls-1" d="M687.76,464.3c2.33-.42,4.62-.74,6.84-.96,2.23-.21,4.51-.32,6.84-.32s4.51.11,6.53.32c2.01.21,4.19.53,6.53.96.64,3.18,1.27,7.48,1.91,12.89.64,5.41.95,9.92.95,13.53,2.12-3.6,4.82-7.21,8.12-10.82,3.29-3.6,7.05-6.84,11.3-9.71,4.24-2.86,9.12-5.2,14.65-7,5.51-1.8,11.57-2.71,18.15-2.71,18.67,0,32.47,5.36,41.38,16.08,8.92,10.72,13.37,26.58,13.37,47.59v103.46c-2.34.42-4.99.74-7.96.95-2.97.21-5.62.32-7.96.32s-4.93-.11-7.8-.32c-2.86-.21-5.47-.53-7.8-.95v-94.87c0-15.07-2.34-26.15-7-33.27-4.67-7.11-12.1-10.66-22.29-10.66-5.94,0-11.57,1.06-16.87,3.18-5.31,2.12-9.98,5.41-14.01,9.87-4.03,4.45-7.27,10.24-9.71,17.35-2.44,7.11-3.66,15.65-3.66,25.63v82.77c-2.34.42-4.94.74-7.8.95-2.86.21-5.47.32-7.8.32s-4.99-.11-7.96-.32c-2.97-.21-5.63-.53-7.96-.95v-163.31Z"/>
  <path class="cls-1" d="M937.98,631.43c-12.73,0-23.88-2.18-33.43-6.53-9.55-4.35-17.51-10.35-23.88-17.99-6.37-7.64-11.09-16.66-14.17-27.06-3.08-10.4-4.62-21.65-4.62-33.75s1.54-23.34,4.62-33.74c3.07-10.4,7.8-19.42,14.17-27.06,6.37-7.64,14.33-13.69,23.88-18.14,9.55-4.46,20.69-6.69,33.43-6.69s23.88,2.23,33.43,6.69c9.55,4.45,17.51,10.51,23.88,18.14,6.37,7.64,11.09,16.67,14.17,27.06,3.07,10.4,4.62,21.65,4.62,33.74s-1.54,23.35-4.62,33.75c-3.08,10.4-7.8,19.42-14.17,27.06-6.37,7.64-14.32,13.64-23.88,17.99-9.55,4.35-20.69,6.53-33.43,6.53ZM937.98,606.29c14.64,0,25.47-5.3,32.47-15.92,7-10.61,10.51-25.36,10.51-44.25s-3.5-33.59-10.51-44.09c-7-10.51-17.83-15.76-32.47-15.76s-25.42,5.25-32.31,15.76c-6.9,10.51-10.35,25.21-10.35,44.09s3.45,33.64,10.35,44.25c6.9,10.61,17.67,15.92,32.31,15.92Z"/>
  <path class="cls-1" d="M1029.03,464.3c2.97-.42,6.05-.74,9.23-.96,3.18-.21,6.05-.32,8.59-.32,2.76,0,5.78.11,9.07.32,3.29.21,6.1.53,8.44.96l44.57,134.66,44.89-134.66c2.33-.42,4.98-.74,7.96-.96,2.97-.21,5.83-.32,8.59-.32,2.33,0,4.98.11,7.96.32,2.97.21,5.94.53,8.91.96l-63.67,163.31c-2.76.42-5.52.74-8.28.95-2.76.21-5.31.32-7.64.32s-4.83-.11-7.48-.32c-2.66-.21-5.25-.53-7.8-.95l-63.35-163.31Z"/>
  <g>
    <path class="cls-1" d="M1262.06,615.2c0,11.25-1.07,21.01-3.19,29.29-2.12,8.28-5.73,15.07-10.82,20.38-5.09,5.3-11.83,9.23-20.21,11.78-8.39,2.55-18.94,3.82-31.67,3.82-.43-2.12-.75-4.25-.96-6.37-.21-2.12-.32-4.25-.32-6.37,0-2.34.11-4.51.32-6.53.21-2.02.53-3.98.96-5.89,7.85,0,14.17-.91,18.94-2.7,4.78-1.8,8.38-4.62,10.82-8.44,2.44-3.82,4.03-8.81,4.78-14.96.74-6.15,1.11-13.58,1.11-22.29v-2.23c0-11.67.42-21.54,1.27-29.61.85-8.06,2.33-14.8,4.45-20.21,2.12-5.41,4.94-9.87,8.44-13.37,3.5-3.5,7.8-6.63,12.89-9.39-5.09-2.55-9.39-5.57-12.89-9.07s-6.32-7.96-8.44-13.37c-2.12-5.41-3.61-12.15-4.45-20.21-.85-8.06-1.27-17.93-1.27-29.61v-1.91c0-8.91-.37-16.44-1.11-22.6-.74-6.15-2.34-11.19-4.78-15.12-2.44-3.92-6.05-6.73-10.82-8.43-4.77-1.7-11.09-2.55-18.94-2.55-.43-1.91-.75-3.87-.96-5.89-.21-2.01-.32-4.19-.32-6.53s.11-4.51.32-6.53c.21-2.01.53-4.08.96-6.21h4.45c14.43,0,25.79,1.97,34.06,5.89,8.28,3.93,14.49,9.76,18.62,17.51,4.14,7.75,6.68,17.35,7.64,28.81.95,11.46,1.43,24.73,1.43,39.79,0,7.22.58,13.53,1.75,18.94,1.16,5.41,3.02,10.24,5.57,14.49,2.55,4.25,5.89,8.01,10.03,11.3,4.14,3.29,9.07,6.42,14.8,9.39v4.14c-7.86,4.03-13.96,8.17-18.31,12.42-4.35,4.25-7.59,9.39-9.71,15.44-2.12,6.05-3.4,13.32-3.82,21.81-.43,8.49-.64,18.89-.64,31.2Z"/>
    <path class="cls-1" d="M1196.16,681.93h-1.2l-.24-1.17c-.44-2.15-.76-4.34-.98-6.52-.21-2.16-.32-4.35-.32-6.51,0-2.38.11-4.62.33-6.68.21-2.07.54-4.1.98-6.06l.26-1.15h1.17c7.63,0,13.83-.88,18.42-2.61,4.45-1.68,7.85-4.33,10.1-7.86,2.31-3.61,3.84-8.44,4.56-14.35.73-6.07,1.1-13.51,1.1-22.11v-2.23c0-11.67.43-21.69,1.28-29.76.85-8.15,2.38-15.08,4.55-20.6,2.18-5.57,5.13-10.24,8.77-13.87,3.03-3.03,6.68-5.82,10.88-8.31-4.19-2.34-7.84-5.05-10.88-8.08-3.63-3.63-6.58-8.3-8.77-13.87-2.16-5.52-3.69-12.45-4.55-20.6-.85-8.06-1.28-18.08-1.28-29.76v-1.91c0-8.8-.37-16.35-1.1-22.43-.72-5.9-2.25-10.79-4.57-14.53-2.25-3.61-5.64-6.25-10.07-7.83-4.6-1.63-10.8-2.46-18.45-2.46h-1.17l-.26-1.15c-.44-1.95-.77-3.99-.98-6.06-.22-2.05-.33-4.3-.33-6.68s.11-4.62.33-6.68c.21-2.06.54-4.19.98-6.35l.24-1.18h5.66c14.58,0,26.25,2.03,34.69,6.03,8.53,4.05,15.02,10.16,19.29,18.15,4.21,7.89,6.84,17.77,7.81,29.38.95,11.46,1.44,24.89,1.44,39.92,0,7.09.58,13.36,1.72,18.63,1.12,5.23,2.94,9.95,5.39,14.04,2.45,4.08,5.7,7.75,9.68,10.91,4.04,3.21,8.94,6.32,14.57,9.24l.79.41v5.93l-.8.41c-7.69,3.95-13.73,8.04-17.95,12.16-4.17,4.07-7.32,9.07-9.35,14.87-2.07,5.89-3.33,13.09-3.74,21.4-.42,8.31-.63,18.79-.63,31.12,0,11.3-1.09,21.28-3.23,29.65-2.18,8.49-5.94,15.56-11.19,21.03-5.25,5.47-12.26,9.56-20.85,12.17-8.49,2.58-19.29,3.88-32.1,3.88ZM1197.35,656.77c-.3,1.49-.53,3.03-.69,4.58-.21,1.96-.31,4.1-.31,6.37,0,2.06.1,4.15.31,6.22.17,1.68.4,3.37.71,5.05,11.99-.08,22.09-1.34,30.04-3.76,8.1-2.46,14.69-6.29,19.58-11.39,4.89-5.1,8.41-11.73,10.46-19.72,2.08-8.13,3.14-17.87,3.14-28.92,0-12.39.21-22.91.64-31.27.42-8.58,1.74-16.06,3.9-22.22,2.18-6.23,5.57-11.61,10.07-16,4.29-4.18,10.29-8.31,17.87-12.26v-2.36c-5.47-2.88-10.26-5.95-14.25-9.13-4.26-3.38-7.75-7.31-10.37-11.69-2.62-4.37-4.56-9.39-5.75-14.93-1.18-5.48-1.78-11.96-1.78-19.25,0-14.95-.48-28.29-1.43-39.67-.94-11.2-3.45-20.7-7.47-28.24-3.97-7.42-10.01-13.1-17.96-16.88-8.04-3.81-19.29-5.75-33.43-5.75h-3.24c-.31,1.66-.54,3.3-.71,4.89-.21,1.96-.31,4.11-.31,6.37s.1,4.42.31,6.37c.16,1.56.39,3.09.69,4.58,7.44.09,13.57.97,18.24,2.63,5.08,1.81,8.97,4.85,11.58,9.04,2.54,4.1,4.22,9.39,4.98,15.72.75,6.2,1.13,13.86,1.13,22.78v1.91c0,11.58.43,21.49,1.27,29.45.83,7.89,2.29,14.56,4.36,19.83,2.03,5.19,4.76,9.52,8.11,12.87s7.58,6.33,12.51,8.8l2.52,1.26-2.48,1.34c-4.95,2.68-9.17,5.76-12.55,9.14s-6.07,7.68-8.11,12.87c-2.07,5.27-3.54,11.94-4.36,19.83-.84,7.97-1.27,17.88-1.27,29.45v2.23c0,8.71-.38,16.27-1.13,22.46-.77,6.35-2.45,11.59-4.99,15.58-2.6,4.07-6.49,7.11-11.54,9.02-4.68,1.76-10.82,2.7-18.27,2.79Z"/>
  </g>
</svg>