<?xml version="1.0" encoding="UTF-8"?>
<svg version="1.1" xmlns="http://www.w3.org/2000/svg" width="250" height="250">
<path d="M0 0 C30.69 0 61.38 0 93 0 C93 0.99 93 1.98 93 3 C94.3303125 2.8453125 94.3303125 2.8453125 95.6875 2.6875 C100.05972938 3.09997447 101.23558452 4.69805929 104 8 C107.12612047 12.68918071 107.35760336 17.89083748 106.71875 23.4453125 C105.34693383 30.19007531 102.77466842 35.95249338 98 41 C94.61252589 43.10776167 92.36860766 43.96822348 88.375 44.3125 C84.79651872 44.6636828 84.79651872 44.6636828 82.875 47.6875 C82.25625 48.780625 81.6375 49.87375 81 51 C78.89534812 53.82430704 76.81636552 56.44775274 73.875 58.4375 C71.18514018 60.43868985 71.18514018 60.43868985 69 67 C88.305 67.495 88.305 67.495 108 68 C108 75 108 75 106.15014648 77.89805603 C101.63618639 80.91000841 97.91592803 80.69429381 92.59765625 80.63110352 C91.02852982 80.64183647 91.02852982 80.64183647 89.42770386 80.65278625 C85.97219077 80.66968549 82.51797272 80.65026213 79.0625 80.62890625 C76.66023654 80.62973483 74.25797313 80.63219378 71.85571289 80.63621521 C66.8219292 80.63907407 61.78859023 80.62436254 56.75488281 80.59692383 C50.30165289 80.56284166 43.84921831 80.56885884 37.39595032 80.5875864 C32.43568287 80.59815359 27.47560057 80.58922097 22.51535034 80.57420158 C20.13590037 80.5690173 17.75643108 80.56950454 15.37698364 80.57574654 C12.05168054 80.58119507 8.72751703 80.56083346 5.40234375 80.53344727 C3.92627151 80.54323608 3.92627151 80.54323608 2.42037964 80.55322266 C-1.91115167 80.49254693 -4.33699328 80.40977572 -8.08764648 78.09165955 C-11.54143336 74.31403882 -11 73.80004219 -11 68 C6.325 67.505 6.325 67.505 24 67 C23.01 65.35 22.02 63.7 21 62 C20.71125 61.319375 20.4225 60.63875 20.125 59.9375 C19.07169309 57.82990802 19.07169309 57.82990802 16.8125 56.375 C7.10878524 48.18075198 2.68078155 36.01729662 0 24 C0 16.08 0 8.16 0 0 Z M93 12 C92.95101562 12.75023438 92.90203125 13.50046875 92.8515625 14.2734375 C92.36122156 20.98603585 91.49541074 27.43761499 90 34 C94.27151063 32.00487055 96.03426093 29.88064976 98.1875 25.6875 C99.45944281 21.48030456 99.68367192 17.66645031 98 13.5625 C97.67 13.046875 97.34 12.53125 97 12 C95.68 12 94.36 12 93 12 Z " fill="#5291C3" transform="translate(76,108)"/>
<path d="M0 0 C0.66 0 1.32 0 2 0 C1.80664062 0.556875 1.61328125 1.11375 1.4140625 1.6875 C1.15367187 2.450625 0.89328125 3.21375 0.625 4 C0.36976563 4.7425 0.11453125 5.485 -0.1484375 6.25 C-4.59262356 20.60186692 -4.68165641 33.27705128 2 47 C2.60521484 48.10794922 2.60521484 48.10794922 3.22265625 49.23828125 C7.01561534 56.45713887 6.94988493 64.07052581 6 72 C4.84056005 75.23656429 3.27555311 77.45256262 1 80 C0.47277344 80.66902344 -0.05445313 81.33804688 -0.59765625 82.02734375 C-3.38042267 85.48016204 -3.38042267 85.48016204 -5 87 C-5.66 87 -6.32 87 -7 87 C-6.7834375 86.47535156 -6.566875 85.95070313 -6.34375 85.41015625 C-2.07399448 73.52995685 -2.6271958 61.412496 -7.62109375 49.90234375 C-8.47829764 48.09808741 -9.34396015 46.29779381 -10.22265625 44.50390625 C-13.85093632 36.58411211 -14.51640124 27.91306758 -12.33984375 19.42578125 C-11.38970109 17.13474461 -10.29615358 15.11517236 -9 13 C-8.42121094 12.03707031 -7.84242188 11.07414063 -7.24609375 10.08203125 C-2.62563776 2.62563776 -2.62563776 2.62563776 0 0 Z " fill="#F78C0F" transform="translate(136,0)"/>
<path d="M0 0 C2.6875 -0.5 2.6875 -0.5 6 0 C7.60457042 1.94374791 8.7442084 3.92655387 9.921875 6.15234375 C10.86893048 8.16243997 10.86893048 8.16243997 13 9 C13.103125 8.443125 13.20625 7.88625 13.3125 7.3125 C14.19043466 4.35944706 15.01276034 2.3846876 17 0 C20.6875 -0.3125 20.6875 -0.3125 24 0 C23.41742935 3.84496627 22.24742265 6.58186703 20.3125 9.9375 C18.29858794 13.79137815 18.29858794 13.79137815 18.375 18.0625 C18.91125 19.031875 19.4475 20.00125 20 21 C20.41765625 21.77988281 20.8353125 22.55976563 21.265625 23.36328125 C22.47510937 25.59804692 23.72154152 27.80417436 25 30 C24.34 30.99 23.68 31.98 23 33 C19.75 33 19.75 33 16 32 C14.58928044 30.01041375 13.71824798 28.07791344 12.82421875 25.8125 C12.14254584 23.80915957 12.14254584 23.80915957 10 23 C9.731875 23.721875 9.46375 24.44375 9.1875 25.1875 C6.88235294 30.64705882 6.88235294 30.64705882 5 33 C1.8125 33.3125 1.8125 33.3125 -1 33 C-1.6796875 31.3125 -1.6796875 31.3125 -2 29 C-0.8203125 26.5625 -0.8203125 26.5625 0.875 24 C3.79193801 19.81461688 3.79193801 19.81461688 5 15 C3.76946831 12.25690536 3.76946831 12.25690536 2 9.5 C-1.06849315 4.51369863 -1.06849315 4.51369863 -0.6875 1.65625 C-0.3471875 0.83640625 -0.3471875 0.83640625 0 0 Z " fill="#FB9201" transform="translate(165,199)"/>
<path d="M0 0 C1.01785931 3.21615268 0.97115339 4.10276603 0 7.5625 C-2.55674127 16.9198252 0.15763605 26.83852547 4.71875 35.12109375 C5.95147478 37.22531453 7.20293611 39.31871846 8.4765625 41.3984375 C11.31043396 46.23781799 11.51172078 50.52641521 11 56 C9.35448335 60.85427411 7.07394719 64.93445695 4 69 C3.34 69 2.68 69 2 69 C2.23396484 67.95005859 2.23396484 67.95005859 2.47265625 66.87890625 C4.64699117 55.00864822 2.12139625 46.64901042 -4.51171875 36.7421875 C-8.80054357 30.08160569 -9.07720164 23.77790473 -8 16 C-6.2210322 10.06785261 -3.87928155 4.84625789 0 0 Z " fill="#F68914" transform="translate(109,26)"/>
<path d="M0 0 C3.96246997 4.3266357 3.3478321 9.29954228 3.1875 14.8125 C3.16719727 16.13797852 3.16719727 16.13797852 3.14648438 17.49023438 C3.11129217 19.66042023 3.05748985 21.83029033 3 24 C0.06152347 24.107834 -2.87301151 24.18721916 -5.8125 24.25 C-7.06256836 24.30027344 -7.06256836 24.30027344 -8.33789062 24.3515625 C-14.49063997 24.45040185 -14.49063997 24.45040185 -17.05859375 22.1796875 C-18.29655699 19.31336598 -18.26869227 17.08996105 -18 14 C-17.67 13.34 -17.34 12.68 -17 12 C-16.34 12 -15.68 12 -15 12 C-15 11.34 -15 10.68 -15 10 C-11.7 9.67 -8.4 9.34 -5 9 C-5 8.01 -5 7.02 -5 6 C-6.2375 6.165 -7.475 6.33 -8.75 6.5 C-11.57820832 6.87709444 -14.11564062 7 -17 7 C-17 5.35 -17 3.7 -17 2 C-11.48562556 -0.99694263 -6.10107768 -2.2185737 0 0 Z M-9 14 C-9.99 15.485 -9.99 15.485 -11 17 C-10.67 17.66 -10.34 18.32 -10 19 C-8.35 18.67 -6.7 18.34 -5 18 C-5 16.68 -5 15.36 -5 14 C-6.32 14 -7.64 14 -9 14 Z " fill="#5290C2" transform="translate(138,206)"/>
<path d="M0 0 C2.70110374 2.9195483 3.36880937 4.82191286 3.29296875 8.765625 C3.28330078 9.65507812 3.27363281 10.54453125 3.26367188 11.4609375 C3.23853516 12.38132813 3.21339844 13.30171875 3.1875 14.25 C3.16719727 15.65378906 3.16719727 15.65378906 3.14648438 17.0859375 C3.11119954 19.39121327 3.06190281 21.6953106 3 24 C0.22858283 24.08089542 -2.54047819 24.14044062 -5.3125 24.1875 C-6.09818359 24.21263672 -6.88386719 24.23777344 -7.69335938 24.26367188 C-8.45068359 24.27333984 -9.20800781 24.28300781 -9.98828125 24.29296875 C-10.68477783 24.3086792 -11.38127441 24.32438965 -12.09887695 24.34057617 C-14.58103518 23.89591061 -15.45193026 22.94732283 -17 21 C-17.55618667 18.295406 -17.42629934 15.72263177 -17 13 C-15.18836733 10.32568511 -14.12238923 10.04079641 -11 9 C-8.66700175 8.96045766 -6.33291811 8.95598268 -4 9 C-4 8.01 -4 7.02 -4 6 C-10.06264222 6.66264086 -10.06264222 6.66264086 -16 8 C-16.125 5.125 -16.125 5.125 -16 2 C-11.95100964 -2.04899036 -5.24234273 -1.619825 0 0 Z M-8 14 C-8.66 14.66 -9.32 15.32 -10 16 C-10 16.99 -10 17.98 -10 19 C-8.35 18.67 -6.7 18.34 -5 18 C-4.67 16.68 -4.34 15.36 -4 14 C-5.32 14 -6.64 14 -8 14 Z " fill="#5190C2" transform="translate(92,206)"/>
<path d="M0 0 C1.58206057 0.00667536 3.16410534 0.0186375 4.74609375 0.03515625 C5.55240234 0.03966797 6.35871094 0.04417969 7.18945312 0.04882812 C9.18753131 0.06065107 11.18557158 0.07858711 13.18359375 0.09765625 C13.18359375 2.40765625 13.18359375 4.71765625 13.18359375 7.09765625 C9.88359375 7.09765625 6.58359375 7.09765625 3.18359375 7.09765625 C3.18359375 9.40765625 3.18359375 11.71765625 3.18359375 14.09765625 C6.48359375 14.09765625 9.78359375 14.09765625 13.18359375 14.09765625 C13.18359375 16.07765625 13.18359375 18.05765625 13.18359375 20.09765625 C9.88359375 20.09765625 6.58359375 20.09765625 3.18359375 20.09765625 C3.18359375 24.05765625 3.18359375 28.01765625 3.18359375 32.09765625 C0.85750805 32.47828846 -1.47695889 32.8103557 -3.81640625 33.09765625 C-5.72490573 31.18915677 -4.94700258 27.78286851 -4.94921875 25.25390625 C-4.95017548 24.56961548 -4.9511322 23.88532471 -4.95211792 23.18029785 C-4.95279955 21.73103748 -4.95094648 20.28177407 -4.94677734 18.83251953 C-4.94142877 16.60702697 -4.94672285 14.38173624 -4.953125 12.15625 C-4.95246422 10.75130164 -4.95118305 9.3463534 -4.94921875 7.94140625 C-4.94809082 6.65427734 -4.94696289 5.36714844 -4.94580078 4.04101562 C-4.75176876 -0.37266368 -4.58880503 0.1174208 0 0 Z " fill="#FC9201" transform="translate(148.81640625,198.90234375)"/>
<path d="M0 0 C1.134375 0.020625 2.26875 0.04125 3.4375 0.0625 C5.24992323 4.0813515 6.77251617 7.67360675 7.4375 12.0625 C9.22818573 9.3764714 10.09805791 7.3998411 11.0625 4.375 C11.32289062 3.56675781 11.58328125 2.75851563 11.8515625 1.92578125 C12.04492188 1.31089844 12.23828125 0.69601563 12.4375 0.0625 C14.7475 0.0625 17.0575 0.0625 19.4375 0.0625 C19.09225475 5.70150572 17.72312775 10.67343516 15.9375 16 C15.71167236 16.67490479 15.48584473 17.34980957 15.25317383 18.04516602 C13.57791539 22.92208461 13.57791539 22.92208461 12.4375 24.0625 C10.91821962 24.13429964 9.39582518 24.14642007 7.875 24.125 C7.04871094 24.11597656 6.22242187 24.10695312 5.37109375 24.09765625 C4.41396484 24.08025391 4.41396484 24.08025391 3.4375 24.0625 C0.24551153 16.54095271 -2.25388424 8.89705774 -4.5625 1.0625 C-3.5625 0.0625 -3.5625 0.0625 0 0 Z " fill="#5290C3" transform="translate(100.5625,205.9375)"/>
<path d="M0 0 C2.64 0 5.28 0 8 0 C8.05817206 4.22910869 8.09365463 8.45811409 8.125 12.6875 C8.15013672 14.48477539 8.15013672 14.48477539 8.17578125 16.31835938 C8.18222656 17.47529297 8.18867187 18.63222656 8.1953125 19.82421875 C8.20578613 20.88729248 8.21625977 21.95036621 8.22705078 23.0456543 C7.99111614 26.1155952 7.39796336 28.26572107 6 31 C3.6203388 32.1898306 2.08514265 32.13349966 -0.5625 32.125 C-1.77099609 32.12886719 -1.77099609 32.12886719 -3.00390625 32.1328125 C-5 32 -5 32 -6 31 C-6.04080783 29.00041636 -6.04254356 26.99954746 -6 25 C-4.02 25 -2.04 25 0 25 C0 16.75 0 8.5 0 0 Z " fill="#5190C2" transform="translate(63,198)"/>
<path d="M0 0 C0.66 0 1.32 0 2 0 C1.55090939 1.48199902 1.09043436 2.96055236 0.625 4.4375 C0.36976563 5.26121094 0.11453125 6.08492188 -0.1484375 6.93359375 C-1 9 -1 9 -3 10 C-3.66 8.68 -4.32 7.36 -5 6 C-3.38405168 3.95880212 -1.7143618 1.95927063 0 0 Z " fill="#E77240" transform="translate(136,0)"/>
<path d="M0 0 C0.93065133 2.60582371 1.14917407 3.64198224 0.0625 6.25 C-0.4634375 7.11625 -0.4634375 7.11625 -1 8 C-1.99 8 -2.98 8 -4 8 C-2.87548273 5.0280615 -1.77706209 2.66559313 0 0 Z " fill="#E26A51" transform="translate(109,26)"/>
<path d="M0 0 C1 4 1 4 0 6 C0.66 6.33 1.32 6.66 2 7 C0.625 8.5 0.625 8.5 -1 10 C-1.66 10 -2.32 10 -3 10 C-2.01 6.7 -1.02 3.4 0 0 Z " fill="#E36C4D" transform="translate(132,77)"/>
</svg>
