<?xml version="1.0" encoding="UTF-8"?>
<svg id="Layer_1" xmlns="http://www.w3.org/2000/svg" width="869.33" height="853.67" viewBox="0 0 869.33 853.67">
  <defs>
    <style>
      .cls-1 {
        fill: #fff;
      }

      .cls-2 {
        fill: #0c3368;
      }
    </style>
  </defs>
  <path class="cls-2" d="M443.96,27.91C223.03,27.91,43.91,207,43.91,427.96s179.12,400.04,400.05,400.04,400.04-179.12,400.04-400.04S664.92,27.91,443.96,27.91ZM248.8,173.56h288.89c.85,0,1.66.21,2.38.58l74.29,38.24c3.16,1.6,3.81,5.82,1.29,8.34l-59.65,59.65c-.98.99-2.31,1.53-3.71,1.53h-205.57c-1.4,0-2.72-.54-3.71-1.53l-97.88-97.89c-3.31-3.3-.99-8.92,3.67-8.92ZM230.96,631.04l-3.23-418.49c-.07-4.67,5.58-7.02,8.89-3.71l96.79,96.76c.95.98,1.53,2.31,1.53,3.67v228.21c0,1.4-.58,2.73-1.53,3.68l-93.53,93.53c-3.26,3.3-8.88.98-8.92-3.65ZM614.36,632.03l-74.29,38.23c-.72.38-1.53.58-2.38.58H248.8c-4.66,0-6.98-5.61-3.67-8.92l97.88-97.88c.99-.99,2.31-1.53,3.71-1.53h205.57c1.4,0,2.73.54,3.71,1.53l59.65,59.68c2.52,2.49,1.87,6.71-1.29,8.31ZM709.28,531.08c0,1.37-.55,2.69-1.53,3.68l-67.69,67.68c-2.04,2.05-5.34,2.05-7.38,0l-62.65-62.64c-2.11-2.08-2.04-5.52.14-7.52l31.18-28.71c1.06-.98,1.67-2.38,1.67-3.84v-61.63c0-2.89,2.35-5.21,5.21-5.21h95.8c2.9,0,5.25,2.32,5.25,5.21v92.98ZM709.28,406.3c0,2.9-2.35,5.21-5.25,5.21h-95.8c-2.86,0-5.21-2.31-5.21-5.21v-61.62c0-1.46-.61-2.86-1.67-3.85l-31.18-28.7c-2.18-2.01-2.25-5.44-.14-7.52l62.65-62.65c2.04-2.04,5.34-2.04,7.38,0l67.69,67.69c.98.98,1.53,2.31,1.53,3.67v92.98Z"/>
  <path class="cls-1" d="M709.28,313.32v92.98c0,2.9-2.35,5.21-5.25,5.21h-95.8c-2.86,0-5.21-2.31-5.21-5.21v-61.62c0-1.46-.61-2.86-1.67-3.85l-31.18-28.7c-2.18-2.01-2.25-5.44-.14-7.52l62.65-62.65c2.04-2.04,5.34-2.04,7.38,0l67.69,67.69c.98.98,1.53,2.31,1.53,3.67Z"/>
  <path class="cls-1" d="M709.28,438.1v92.98c0,1.37-.55,2.69-1.53,3.68l-67.69,67.68c-2.04,2.05-5.34,2.05-7.38,0l-62.65-62.64c-2.11-2.08-2.04-5.52.14-7.52l31.18-28.71c1.06-.98,1.67-2.38,1.67-3.84v-61.63c0-2.89,2.35-5.21,5.21-5.21h95.8c2.9,0,5.25,2.32,5.25,5.21Z"/>
  <path class="cls-1" d="M614.36,632.03l-74.29,38.23c-.72.38-1.53.58-2.38.58H248.8c-4.66,0-6.98-5.61-3.67-8.92l97.88-97.88c.99-.99,2.31-1.53,3.71-1.53h205.57c1.4,0,2.73.54,3.71,1.53l59.65,59.68c2.52,2.49,1.87,6.71-1.29,8.31Z"/>
  <path class="cls-1" d="M334.94,309.27v228.21c0,1.4-.58,2.73-1.53,3.68l-93.53,93.53c-3.26,3.3-8.88.98-8.92-3.65l-3.23-418.49c-.07-4.67,5.58-7.02,8.89-3.71l96.79,96.76c.95.98,1.53,2.31,1.53,3.67Z"/>
  <path class="cls-1" d="M615.65,220.72l-59.65,59.65c-.98.99-2.31,1.53-3.71,1.53h-205.57c-1.4,0-2.72-.54-3.71-1.53l-97.88-97.89c-3.31-3.3-.99-8.92,3.67-8.92h288.89c.85,0,1.66.21,2.38.58l74.29,38.24c3.16,1.6,3.81,5.82,1.29,8.34Z"/>
</svg>