<?xml version="1.0" encoding="UTF-8"?>
<svg id="Layer_1" xmlns="http://www.w3.org/2000/svg" width="869.33" height="853.67" viewBox="0 0 869.33 853.67">
  <defs>
    <style>
      .cls-1 {
        fill: #0c3368;
      }
    </style>
  </defs>
  <path class="cls-1" d="M443.96,27.91C223.03,27.91,43.91,206.99,43.91,427.95s179.12,400.04,400.04,400.04,400.04-179.12,400.04-400.04S664.92,27.91,443.96,27.91ZM248.8,173.56h288.88c.85,0,1.67.2,2.38.58l74.29,38.23c3.17,1.6,3.81,5.82,1.29,8.34l-59.65,59.65c-.99.99-2.31,1.53-3.71,1.53h-205.57c-1.4,0-2.72-.54-3.71-1.53l-97.88-97.88c-3.3-3.3-.99-8.92,3.68-8.92ZM230.96,631.04l-3.24-418.5c-.07-4.66,5.58-7.01,8.89-3.71l96.79,96.76c.95.99,1.53,2.31,1.53,3.68v228.21c0,1.4-.58,2.72-1.53,3.68l-93.52,93.52c-3.27,3.3-8.89.99-8.92-3.64ZM614.36,632.03l-74.29,38.23c-.71.37-1.53.58-2.38.58H248.8c-4.66,0-6.98-5.62-3.68-8.92l97.88-97.88c.99-.99,2.31-1.53,3.71-1.53h205.57c1.4,0,2.72.54,3.71,1.53l59.65,59.68c2.52,2.49,1.87,6.71-1.29,8.31ZM709.28,531.08c0,1.36-.54,2.69-1.53,3.68l-67.68,67.68c-2.04,2.04-5.35,2.04-7.39,0l-62.65-62.64c-2.11-2.08-2.04-5.52.14-7.52l31.19-28.7c1.05-.99,1.67-2.38,1.67-3.85v-61.62c0-2.89,2.35-5.21,5.21-5.21h95.8c2.89,0,5.24,2.32,5.24,5.21v92.98ZM709.28,406.3c0,2.89-2.35,5.21-5.24,5.21h-95.8c-2.86,0-5.21-2.32-5.21-5.21v-61.62c0-1.46-.61-2.86-1.67-3.85l-31.19-28.7c-2.18-2.01-2.25-5.45-.14-7.52l62.65-62.64c2.04-2.04,5.35-2.04,7.39,0l67.68,67.68c.99.99,1.53,2.31,1.53,3.68v92.98Z"/>
</svg>