<?xml version="1.0" encoding="UTF-8"?>
<svg id="Layer_1" xmlns="http://www.w3.org/2000/svg" width="1366" height="768" viewBox="0 0 1366 768">
  <defs>
    <style>
      .cls-1 {
        fill: #6ea523;
      }
    </style>
  </defs>
  <path class="cls-1" d="M84.56,408.22c0-23.57.15-47.14-.05-70.71-.1-11.45,5.46-19.26,15.75-22.46,9.48-2.95,17.11-.62,21.91,10.28,4.37,9.92,3,8.02,11.49,1.99,34.31-24.34,57.56-11.7,77.48,2.29,10.15,7.13,14.91,3.16,21.13-2.6,13.64-12.63,46.31-18.06,64.45-16.18,32.19,3.33,52.14,24.51,53.03,57.67.96,35.71.05,71.47.23,107.2.09,16.72-8.11,26.59-24.43,26.41-16.39-.19-18.07-13.14-18.09-26.19-.03-29.65.22-59.32-.48-88.96-.65-27.41-11.94-40.23-33.35-39.7-21.3.53-33.02,14.35-33.41,40.26-.32,22.05-.06,44.1-.05,66.15,0,4.56.28,9.14,0,13.68-1.03,16.18-1.26,35.06-23.36,34.65-21.95-.41-22.15-19.47-22.47-35.52-.53-26.6-.03-53.22-.1-79.83-.08-27.63-8.82-39.11-29.62-39.26-21.09-.15-33.61,14.29-33.98,39.39-.45,30.24-.31,60.5-1.35,90.71-.48,14.06-5.93,25.8-23.11,24.85-15.87-.88-22.3-9.83-21.81-25.7.7-22.79.18-45.62.19-68.43Z"/>
  <path d="M1191.64,307.01c-59.58-.14-95.81,37.6-96.09,99.97-.32,65.66,35.5,103.99,96.96,103.95,58.76-.09,95.49-39.16,95.49-101.52.05-64.33-35.64-102.26-96.36-102.39ZM1233.26,431.56c-4.84,22.89-19.05,35.82-39.8,36.87-22.3,1.1-37.38-10.37-43.95-34.4-2.15-7.91-2.6-16.31-3.84-24.49-.05-11.7,1.92-22.98,6.4-33.4,7.17-16.72,20.33-26.32,38.79-26.36,18.41-.05,31.62,8.96,38.79,26.14,7.54,18.09,7.54,36.83,3.61,55.65Z"/>
  <path class="cls-1" d="M751.32,372.32c0-30.38-.18-60.76.14-91.14.07-6.68.29-14.2,3.27-19.82,4.35-8.22,8.98-20.87,19.62-18.98,11.31,2.01,18.71,12.88,19.04,25.31.69,25.81.45,51.64.6,77.46.04,6.83-.05,13.68.22,20.5.2,5.2-.43,11.55,6.14,13.17,4.87,1.2,8.28-3.07,11.29-6.44,13.15-14.73,25.84-29.88,39.36-44.25,8.77-9.31,19.32-21.69,32.43-8.81,13.53,13.3,2.64,24.16-7.93,34.21-26.5,25.2-26.68,28.06-8.76,59.44,10.53,18.45,21.04,36.91,31.42,55.44,6.02,10.76,9.19,21.9-3.52,29.94-13.31,8.42-25.32,4.49-33.25-8.2-11.19-17.91-21.41-36.45-31.51-55.02-9.83-18.07-18.92-12.4-28.54-.03-9.15,11.78-8.47,25.82-8.28,39.27.2,14,.3,26.45-18.11,27.72-20.05,1.39-22.39-14.28-22.91-27.26-1.37-34.12-.46-68.33-.46-102.51h-.27Z"/>
  <path class="cls-1" d="M554.66,408.44c-1.14-56.89-26.5-96.82-95.08-98.42-55.29-1.23-92.25,39.66-92.07,98.97.14,59.08,37.42,98.37,92.93,98.01,61.73,1.83,95.36-41.62,94.21-98.55ZM447.06,470.22c-27.05-7.13-39.93-39.8-32.81-83.07,4.25-25.63,23.67-41.26,49.94-40.07,27.55,1.19,44.59,24.35,44.69,60.77.14,46.6-25.04,72.05-61.82,62.37Z"/>
  <path class="cls-1" d="M564.21,407.83c.74-37.84,11.89-71.38,47.93-88.84,31.27-15.15,63.43-12.85,92.18,8.78,6.5,4.89,12.22,11.47,16.63,18.35,5.25,8.19,5.98,17.23-2.61,24.59-8.35,7.14-16.9,5.88-24.95-.14-7.85-5.86-14.49-13.64-22.91-18.37-22.71-12.77-46.61-2.92-54.46,21.78-7.09,22.29-6.9,44.76-.41,67.22,4.12,14.28,13.01,24.23,27.59,27.36,15.02,3.22,28.04-.07,38.58-13.04,8.82-10.86,16.45-29.51,35.64-14.84,12.55,9.59,8.07,28.73-10.18,44.79-27.1,23.85-58.45,28.31-91.35,15.57-36.71-14.22-46.96-46.64-51.61-81.83-.49-3.73-.07-7.58-.07-11.38Z"/>
  <path d="M1008.79,413.3c0-12.91-.38-25.84.1-38.74.52-13.91,2.22-27.26-18.43-27.93-7.61-.25-9.95-8.16-9.73-15.76.25-8.71,4.07-15.67,12.77-16.13,15.18-.81,16.08-9.94,15.36-21.51-1.15-18.6,2.93-34.94,25.73-34.32,22.46.61,26.2,17.42,24.95,35.65-.85,12.43,1.12,20,16.38,19.51,10.27-.32,16.87,6.53,16.22,17.78-.64,10.95-7.33,17.19-17.74,16.6-12.49-.71-15.18,4.43-14.91,15.81.68,28.09.6,56.22.05,84.32-.25,12.76,2.46,20.62,17.52,19.25,11.34-1.03,19.46,3.68,19.81,16.39.32,11.53-5.57,18.37-16.9,20.77-35.49,7.52-74.6,1.74-71.31-50.68.86-13.62.13-27.34.13-41.02Z"/>
  <path d="M978.22,408.96c0,23.5-.24,47,.08,70.49.24,17.61-8.32,27.85-25.48,28.02-16.14.17-25.14-9.88-25.24-26.07-.29-48.51-.44-97.03.08-145.53.17-15.86,8.57-25.74,25.68-25.05,17.47.7,25.8,9.85,25.45,27.66-.46,23.49-.11,46.99-.11,70.48-.15,0-.3,0-.45,0Z"/>
  <path d="M950.99,295.74c-13.73-1.89-23.5-9.75-24.12-26.01-.56-14.45,14.09-30.67,26.72-30.35,12.86.33,26.51,16.93,25.8,31.4-.72,14.72-12.13,25.4-28.39,24.96Z"/>
</svg>